<svg width="1031" height="656" viewBox="0 0 1031 656" fill="none" xmlns="http://www.w3.org/2000/svg">
<g clip-path="url(#clip0_1_184)">
<rect width="1031" height="656" fill="white"/>
<rect x="-101" y="-16" width="1153" height="688" fill="#E9FF99"/>
<path d="M920.238 144.284H727.329V344.326H1031.5V255.699C1031.5 194.161 981.677 144.284 920.238 144.284Z" fill="#00ED64" stroke="black" stroke-width="1.09474" stroke-linecap="round" stroke-linejoin="round"/>
<path d="M860.461 294.053H744.208V317.797H860.461V294.053Z" fill="#B1FF05" stroke="black" stroke-width="1.09474" stroke-linecap="round" stroke-linejoin="round"/>
<path d="M835.155 260.191H718.902V283.935H835.155V260.191Z" fill="white" stroke="black" stroke-width="1.09474" stroke-linecap="round" stroke-linejoin="round"/>
<path d="M781.855 327.914H718.902V351.658H781.855V327.914Z" fill="white" stroke="black" stroke-width="1.09474" stroke-linecap="round" stroke-linejoin="round"/>
<path d="M885.795 327.914H822.841V351.658H885.795V327.914Z" fill="#B1FF05" stroke="black" stroke-width="1.09474" stroke-linecap="round" stroke-linejoin="round"/>
<path d="M918.382 294.053H873.728V317.797H918.382V294.053Z" fill="#B1FF05" stroke="black" stroke-width="1.09474" stroke-linecap="round" stroke-linejoin="round"/>
<path d="M825.247 233.283C827.212 231.315 824.881 225.791 820.041 220.944C815.2 216.097 809.684 213.763 807.719 215.731C805.754 217.698 808.085 223.223 812.925 228.069C817.765 232.916 823.282 235.251 825.247 233.283Z" fill="#E6F3ED"/>
<path d="M823.264 234.767C820.401 234.767 816.27 232.528 812.37 228.623C807.052 223.298 804.816 217.523 807.161 215.174C809.507 212.826 815.274 215.065 820.592 220.39C825.91 225.715 828.146 231.491 825.8 233.839C825.173 234.467 824.301 234.767 823.264 234.767ZM809.711 215.802C809.084 215.802 808.593 215.966 808.279 216.28C806.861 217.7 808.648 222.67 813.488 227.517C818.328 232.364 823.292 234.153 824.71 232.733C826.128 231.313 824.341 226.343 819.501 221.496C815.738 217.727 811.906 215.802 809.711 215.802Z" fill="#231F20"/>
<path d="M916.46 103.336L804.625 215.324C802.267 217.687 805.062 224.322 810.87 230.139C816.679 235.955 823.305 238.754 825.664 236.392L937.499 124.404C939.858 122.041 937.063 115.406 931.254 109.589C925.446 103.773 918.819 100.974 916.46 103.336Z" fill="#E3FCF7" stroke="black" stroke-width="1.09474" stroke-linecap="round" stroke-linejoin="round"/>
<path d="M937.487 124.398C939.846 122.036 937.048 115.405 931.239 109.588C925.43 103.77 918.808 100.969 916.449 103.331C914.09 105.694 916.887 112.324 922.697 118.142C928.506 123.959 935.128 126.76 937.487 124.398Z" fill="#006EFF" stroke="black" stroke-width="1.09474" stroke-miterlimit="10" stroke-linecap="round"/>
<mask id="mask0_1_184" style="mask-type:luminance" maskUnits="userSpaceOnUse" x="727" y="101" width="305" height="244">
<path d="M920.238 101.711H727.329V344.326H1031.5V255.699C1031.5 227.244 1020.85 201.288 1003.33 181.6C982.945 158.702 953.275 101.711 920.238 101.711Z" fill="white"/>
</mask>
<g mask="url(#mask0_1_184)">
<path d="M1077.67 187.006C967.741 196.168 921.709 133.115 884.199 125.291C870.619 122.451 843.185 122.683 833.082 146.932C823.292 149.841 814.443 156.9 814.456 168.437L814.483 168.601C808.102 171.332 801.885 175.633 798.067 181.982C787.95 198.844 799.321 209.317 804.639 215.325L820.701 199.24C827.191 192.741 839.108 187.812 847.576 194.298C851.571 197.356 854.052 205.876 851.98 210.054C851.98 210.054 827.355 229.156 829.032 233.962C830.409 237.894 843.881 249.705 861.743 237.239C870.864 230.876 885.686 227.326 892.149 231.272C896.812 234.112 953.479 291.144 1101.86 286.038V256.737C1101.86 230.398 1092.82 206.176 1077.67 187.02V187.006Z" fill="#EEEFA6" stroke="black" stroke-width="1.09474" stroke-linecap="round" stroke-linejoin="round"/>
</g>
<path d="M1031.5 344.326V255.699C1031.5 227.244 1020.36 201.288 1002.84 181.6" stroke="black" stroke-width="1.09474" stroke-miterlimit="10"/>
<path d="M444.128 405.946H723.974C834.227 405.946 923.741 495.583 923.741 605.988H444.128V405.946Z" fill="#00ED64" stroke="black" stroke-width="1.09474" stroke-linecap="round" stroke-linejoin="round"/>
<path d="M598.761 257H508.239C473.313 257 445 285.43 445 320.5C445 355.57 473.313 384 508.239 384H598.761C633.687 384 662 355.57 662 320.5C662 285.43 633.687 257 598.761 257Z" fill="#00ED64" stroke="black" stroke-width="1.09474" stroke-linecap="round" stroke-linejoin="round"/>
<path d="M975.05 584.702H600.877L676.77 375.88C679.565 368.179 688.087 361.926 695.777 361.926H1042.08C1049.77 361.926 1053.74 368.179 1050.94 375.88L975.05 584.702Z" fill="white" stroke="black" stroke-width="1.09474" stroke-linecap="round" stroke-linejoin="round"/>
<path d="M625.325 566.583L693.104 380.085H1031.05L963.269 566.583H625.325Z" fill="#FFE212" stroke="black" stroke-width="1.09474" stroke-linecap="round" stroke-linejoin="round"/>
<path d="M864.592 373.873C861.879 373.873 860.488 371.675 861.47 368.958L864.02 361.926H873.837L871.287 368.958C870.305 371.675 867.306 373.873 864.592 373.873Z" fill="black" stroke="black" stroke-width="1.09474" stroke-linecap="round" stroke-linejoin="round"/>
<path d="M837.254 584.702H975.05L967.319 605.988H837.254V584.702Z" fill="black" stroke="black" stroke-width="1.09474" stroke-linecap="round" stroke-linejoin="round"/>
<path d="M667.452 254.365C666.796 246.324 663.318 236.229 657.017 224.08L653.945 218.156L639.854 191L612.568 205.194L626.659 232.36C631.46 241.621 633.72 247.962 633.428 251.393C633.137 254.824 631.574 257.702 628.752 260.049L624.232 262.708L596.551 278.977C586.136 285.067 578.888 291.126 574.795 297.165C570.702 303.192 568.37 310.659 567.776 319.545C560.173 314.925 552.738 312.547 545.458 312.432C538.178 312.318 529.055 314.768 518.089 319.805L484.117 335.313C480.576 336.283 477.327 335.907 474.359 334.176C471.391 332.445 467.506 326.949 462.695 317.688L450.26 293.723C446.5 301.816 444.407 310.837 444.407 320.348C444.407 340.371 453.697 358.215 468.183 369.811C471.37 370.781 474.723 371.198 478.254 371.052C486.085 370.739 497.01 366.933 511.028 359.643C526.493 351.603 536.658 346.983 541.532 345.794C546.406 344.605 551.425 344.595 556.601 345.763C561.777 346.931 566.703 351.644 571.379 359.904L585.022 352.802L598.665 345.7C594.593 337.117 593.583 330.37 595.603 325.458C597.634 320.546 600.529 316.437 604.299 313.131C608.069 309.825 617.682 304.141 633.147 296.101C640.208 292.43 646.092 288.884 650.81 285.484C655.455 282.126 658.954 278.904 661.318 275.807C666.077 269.57 668.119 262.437 667.462 254.396L667.452 254.365Z" fill="#FFC010" stroke="black" stroke-width="1.09474" stroke-linecap="round" stroke-linejoin="round"/>
<path d="M553.675 292.367C554.268 283.482 556.601 276.026 560.694 269.987C564.787 263.96 572.035 257.89 582.45 251.8L614.651 232.882C617.484 230.546 619.036 227.657 619.327 224.226C619.619 220.795 617.359 214.454 612.558 205.194L639.854 191L642.926 196.924C649.227 209.073 652.705 219.158 653.361 227.209C654.018 235.249 651.976 242.393 647.217 248.619C642.458 254.855 633.074 261.613 619.046 268.913C603.581 276.954 593.968 282.637 590.198 285.943C586.428 289.26 583.533 293.369 581.502 298.27C579.482 303.182 580.502 309.929 584.564 318.512L570.921 325.614L553.675 292.367Z" fill="black" stroke="black" stroke-width="1.09474" stroke-linecap="round" stroke-linejoin="round"/>
<path d="M531.367 285.244C524.087 285.13 514.964 287.58 503.998 292.618L470.026 308.125C466.485 309.095 463.236 308.72 460.268 306.988C457.654 305.466 454.332 301.013 450.291 293.65C446.521 301.753 444.417 310.795 444.417 320.316C444.417 327.053 445.469 333.54 447.417 339.63C452.509 342.686 458.091 344.094 464.163 343.854C471.995 343.541 482.919 339.735 496.937 332.445C512.402 324.404 522.567 319.784 527.441 318.596C532.315 317.407 537.334 317.396 542.51 318.564C547.686 319.732 552.612 324.446 557.288 332.706L570.931 325.604L553.685 292.357C546.083 287.737 538.647 285.359 531.367 285.244Z" fill="#FFE212" stroke="black" stroke-width="1.09474" stroke-linecap="round" stroke-linejoin="round"/>
<path d="M584.573 318.521L557.282 332.718L571.377 359.889L598.668 345.693L584.573 318.521Z" fill="#FFC843" stroke="black" stroke-width="1.09474" stroke-linecap="round" stroke-linejoin="round"/>
<path d="M727.015 356.969C688.877 342.442 669.707 299.719 684.214 261.515C698.722 223.326 741.386 204.128 779.537 218.656C817.674 233.184 836.845 275.907 822.337 314.11C807.83 352.3 765.166 371.497 727.015 356.969ZM806.916 308.239C818.179 278.569 803.289 245.377 773.674 234.098C744.045 222.82 710.898 237.73 699.636 267.387C688.373 297.056 703.262 330.249 732.878 341.527C762.507 352.805 795.654 337.895 806.916 308.239Z" fill="black" stroke="black" stroke-width="1.09474" stroke-linecap="round" stroke-linejoin="round"/>
<path d="M720.524 363.469C682.387 348.941 663.216 306.218 677.724 268.015C692.232 229.825 734.896 210.628 773.047 225.155C811.184 239.683 830.355 282.406 815.847 320.609C801.339 358.799 758.675 377.996 720.524 363.469ZM800.426 314.738C811.688 285.068 796.799 251.876 767.183 240.598C737.554 229.32 704.408 244.23 693.145 273.886C681.883 303.556 696.772 336.748 726.387 348.026C756.016 359.304 789.163 344.394 800.426 314.738Z" fill="#006EFF" stroke="black" stroke-width="1.09474" stroke-linecap="round" stroke-linejoin="round"/>
<path d="M807.721 215.72L794.222 229.238C792.259 231.204 794.591 236.734 799.431 241.581C804.271 246.428 809.794 248.763 811.757 246.797L825.256 233.279C827.219 231.313 824.888 225.783 820.047 220.936C815.207 216.089 809.685 213.754 807.721 215.72Z" fill="#E3FCF7" stroke="black" stroke-width="1.09474" stroke-linecap="round" stroke-linejoin="round"/>
<path d="M825.247 233.283C827.212 231.316 824.881 225.791 820.041 220.944C815.2 216.097 809.684 213.763 807.719 215.731C805.754 217.698 808.085 223.223 812.925 228.07C817.766 232.917 823.282 235.251 825.247 233.283Z" fill="white"/>
<path d="M823.265 234.768C820.401 234.768 816.27 232.528 812.37 228.623C807.052 223.298 804.816 217.523 807.162 215.174C809.507 212.826 815.274 215.065 820.592 220.39C825.91 225.715 828.146 231.491 825.801 233.839C825.173 234.467 824.301 234.768 823.265 234.768ZM809.711 215.802C809.084 215.802 808.593 215.966 808.28 216.28C806.862 217.7 808.648 222.67 813.488 227.517C818.329 232.364 823.292 234.153 824.71 232.733C826.128 231.313 824.342 226.343 819.501 221.496C815.738 217.728 811.907 215.802 809.711 215.802Z" fill="#231F20"/>
<path d="M834.581 164.737C827.178 163.836 806.575 167.768 798.053 181.968C787.936 198.831 799.307 209.303 804.625 215.311L820.687 199.227C827.178 192.727 839.095 187.798 847.562 194.284C851.557 197.342 854.039 205.862 851.966 210.04" fill="#EEEFA6"/>
<path d="M834.581 164.737C827.178 163.836 806.575 167.768 798.053 181.968C787.936 198.831 799.307 209.303 804.625 215.311L820.687 199.227C827.178 192.727 839.095 187.798 847.562 194.284C851.557 197.342 854.039 205.862 851.966 210.04" stroke="black" stroke-width="1.09474" stroke-linecap="round" stroke-linejoin="round"/>
<path d="M847.562 194.297C839.095 187.798 827.178 192.741 820.688 199.24L804.626 215.324C802.267 217.686 805.062 224.322 810.871 230.139C816.679 235.955 823.306 238.754 825.665 236.392L851.967 210.054C854.039 205.889 851.558 197.369 847.562 194.297Z" fill="#E3FCF7" stroke="black" stroke-width="1.09474" stroke-linecap="round" stroke-linejoin="round"/>
<path d="M726.859 143.921H704.429V166.382H726.859V143.921Z" fill="black" stroke="black" stroke-width="1.09474" stroke-linecap="round" stroke-linejoin="round"/>
<path d="M704.43 99.0001H682V121.461H704.43V99.0001Z" fill="black" stroke="black" stroke-width="1.09474" stroke-linecap="round" stroke-linejoin="round"/>
<path d="M704.43 166.382H682V188.842H704.43V166.382Z" fill="white" stroke="black" stroke-width="1.09474" stroke-linecap="round" stroke-linejoin="round"/>
<path d="M704.43 121.461H682V143.921H704.43V121.461Z" fill="white" stroke="black" stroke-width="1.09474" stroke-linecap="round" stroke-linejoin="round"/>
<path d="M610.626 419.873L584.31 435.083L558.008 450.294V419.873V389.466L584.31 404.676L610.626 419.873Z" fill="white" stroke="black" stroke-width="1.09474" stroke-linecap="round" stroke-linejoin="round"/>
<path d="M576.525 419.873L558.008 389.466V450.294L576.525 419.873Z" fill="black" stroke="black" stroke-width="1.09474" stroke-linecap="round" stroke-linejoin="round"/>
<path d="M576.525 419.873H610.626" stroke="black" stroke-width="1.09474" stroke-linecap="round" stroke-linejoin="round"/>
<path d="M836.464 584.784H470.853V605.988H836.464V584.784Z" fill="#FFE212" stroke="black" stroke-width="1.09474" stroke-linecap="round" stroke-linejoin="round"/>
<path d="M876.305 516.46H752.09C744.25 516.46 740.214 510.097 743.063 502.26L764.089 444.395C766.938 436.544 775.597 430.195 783.437 430.195H907.652C915.492 430.195 919.528 436.558 916.679 444.395L895.653 502.26C892.804 510.111 884.145 516.46 876.305 516.46Z" fill="white" stroke="black" stroke-width="1.09474" stroke-miterlimit="10"/>
<path d="M961.129 433.035C967.756 443.48 983.763 447.986 983.763 447.986C983.763 447.986 985.672 430.318 979.046 419.873C975.528 414.343 969.556 413.182 964.17 417.128C958.784 421.074 957.611 427.492 961.129 433.021V433.035Z" fill="#FF9F10" stroke="black" stroke-width="1.09474" stroke-linecap="round" stroke-linejoin="round"/>
<path d="M949.976 457.284C964.729 457.284 983.763 447.986 983.763 447.986C983.763 447.986 971.478 438.687 956.739 438.687C948.926 438.687 942.231 442.401 940.199 447.986C938.168 453.57 942.163 457.284 949.976 457.284Z" fill="#FF9F10" stroke="black" stroke-width="1.09474" stroke-linecap="round" stroke-linejoin="round"/>
<path d="M950.262 462.936C964.483 452.491 983.763 447.985 983.763 447.985C983.763 447.985 972.841 465.654 958.606 476.099C951.066 481.629 944.248 482.789 941.74 478.843C939.231 474.897 942.721 468.48 950.262 462.95V462.936Z" fill="#FF9F10" stroke="black" stroke-width="1.09474" stroke-linecap="round" stroke-linejoin="round"/>
<path d="M981.978 478.434C987.35 463.66 983.764 447.985 983.764 447.985C983.764 447.985 968.779 463.66 963.407 478.434C960.557 486.257 962.316 491.61 967.906 491.61C973.497 491.61 979.141 486.257 981.978 478.434Z" fill="#FF9F10" stroke="black" stroke-width="1.09474" stroke-linecap="round" stroke-linejoin="round"/>
<path d="M988.481 476.085C981.854 465.64 983.763 447.972 983.763 447.972C983.763 447.972 999.757 452.492 1006.4 462.923C1009.92 468.453 1008.74 474.87 1003.36 478.816C997.971 482.762 991.999 481.602 988.481 476.072V476.085Z" fill="#FF9F10" stroke="black" stroke-width="1.09474" stroke-linecap="round" stroke-linejoin="round"/>
<path d="M1010.79 457.284C996.035 457.284 983.763 447.986 983.763 447.986C983.763 447.986 1002.8 438.687 1017.55 438.687C1025.36 438.687 1029.36 442.401 1027.33 447.986C1025.3 453.57 1018.6 457.284 1010.79 457.284Z" fill="#FF9F10" stroke="black" stroke-width="1.09474" stroke-linecap="round" stroke-linejoin="round"/>
<path d="M1008.91 419.872C994.685 430.318 983.75 447.986 983.75 447.986C983.75 447.986 1003.03 443.466 1017.25 433.035C1024.79 427.505 1028.28 421.088 1025.77 417.142C1023.26 413.196 1016.45 414.356 1008.91 419.886V419.872Z" fill="#FF9F10" stroke="black" stroke-width="1.09474" stroke-linecap="round" stroke-linejoin="round"/>
<path d="M999.621 404.362C994.044 404.362 988.385 409.714 985.549 417.538C984.036 421.716 983.231 425.962 982.863 429.908C984.759 438.906 983.777 447.986 983.777 447.986C983.777 447.986 998.762 432.297 1004.13 417.538C1006.98 409.714 1005.22 404.362 999.634 404.362H999.621Z" fill="#FF9F10" stroke="black" stroke-width="1.09474" stroke-linecap="round" stroke-linejoin="round"/>
<path d="M989.621 455.036C995.183 450.389 997.072 443.476 993.84 439.597C990.607 435.718 983.478 436.34 977.915 440.988C972.353 445.635 970.464 452.547 973.696 456.427C976.929 460.306 984.058 459.684 989.621 455.036Z" fill="white" stroke="black" stroke-width="1.09474" stroke-linecap="round" stroke-linejoin="round"/>
<path d="M669.666 466.214C676.293 476.659 692.3 481.165 692.3 481.165C692.3 481.165 694.209 463.497 687.582 453.052C684.065 447.522 678.092 446.361 672.707 450.307C667.321 454.253 666.148 460.671 669.666 466.2V466.214Z" fill="#FF9F10" stroke="black" stroke-width="1.09474" stroke-linecap="round" stroke-linejoin="round"/>
<path d="M658.513 490.477C673.266 490.477 692.3 481.179 692.3 481.179C692.3 481.179 680.015 471.88 665.276 471.88C657.463 471.88 650.768 475.594 648.736 481.179C646.705 486.763 650.7 490.477 658.513 490.477Z" fill="#FF9F10" stroke="black" stroke-width="1.09474" stroke-linecap="round" stroke-linejoin="round"/>
<path d="M658.798 496.13C673.02 485.684 692.3 481.179 692.3 481.179C692.3 481.179 681.378 498.847 667.143 509.292C659.603 514.822 652.785 515.982 650.277 512.036C647.768 508.09 651.258 501.673 658.798 496.143V496.13Z" fill="#FF9F10" stroke="black" stroke-width="1.09474" stroke-linecap="round" stroke-linejoin="round"/>
<path d="M690.515 511.627C695.887 496.853 692.301 481.179 692.301 481.179C692.301 481.179 677.316 496.853 671.944 511.627C669.094 519.45 670.853 524.803 676.443 524.803C682.034 524.803 687.678 519.45 690.515 511.627Z" fill="#FF9F10" stroke="black" stroke-width="1.09474" stroke-linecap="round" stroke-linejoin="round"/>
<path d="M697.018 509.278C690.391 498.833 692.3 481.165 692.3 481.165C692.3 481.165 708.294 485.684 714.934 496.116C718.452 501.645 717.279 508.063 711.894 512.009C706.508 515.955 700.536 514.794 697.018 509.264V509.278Z" fill="#FF9F10" stroke="black" stroke-width="1.09474" stroke-linecap="round" stroke-linejoin="round"/>
<path d="M719.325 490.477C704.572 490.477 692.3 481.179 692.3 481.179C692.3 481.179 711.335 471.88 726.088 471.88C733.901 471.88 737.896 475.594 735.864 481.179C733.833 486.763 727.138 490.477 719.325 490.477Z" fill="#FF9F10" stroke="black" stroke-width="1.09474" stroke-linecap="round" stroke-linejoin="round"/>
<path d="M717.443 453.065C703.222 463.511 692.286 481.179 692.286 481.179C692.286 481.179 711.566 476.659 725.788 466.228C733.328 460.698 736.819 454.281 734.31 450.335C731.801 446.389 724.983 447.549 717.443 453.079V453.065Z" fill="#FF9F10" stroke="black" stroke-width="1.09474" stroke-linecap="round" stroke-linejoin="round"/>
<path d="M708.158 437.541C702.581 437.541 696.922 442.893 694.086 450.717C692.573 454.895 691.768 459.141 691.4 463.087C693.296 472.085 692.314 481.165 692.314 481.165C692.314 481.165 707.299 465.477 712.671 450.717C715.521 442.893 713.762 437.541 708.171 437.541H708.158Z" fill="#FF9F10" stroke="black" stroke-width="1.09474" stroke-linecap="round" stroke-linejoin="round"/>
<path d="M698.137 488.219C703.7 483.572 705.589 476.659 702.356 472.78C699.124 468.901 691.995 469.523 686.432 474.171C680.87 478.818 678.981 485.73 682.213 489.61C685.445 493.489 692.575 492.866 698.137 488.219Z" fill="white" stroke="black" stroke-width="1.09474" stroke-linecap="round" stroke-linejoin="round"/>
<path d="M867.115 449.775C865.724 444.614 860.338 442.074 853.275 443.535C845.449 445.16 838.808 450.703 834.841 454.758C834.881 450.703 833.736 445.16 827.519 443.535C821.915 442.074 814.006 444.6 807.502 449.775C795.244 459.51 795.299 471.361 795.299 471.361C794.685 489.589 810.679 503.516 810.679 503.516C810.679 503.516 831.895 494.204 854.884 474.079C858.716 470.733 862.002 466.91 864.279 462.923C866.556 458.964 868.287 454.158 867.115 449.775Z" fill="#FFE212" stroke="black" stroke-width="1.09474" stroke-miterlimit="10"/>
<path d="M489.656 542.825V565.286H512.086V542.825H489.656Z" fill="black" stroke="black" stroke-width="1.09474" stroke-linecap="round" stroke-linejoin="round"/>
<path d="M534.502 497.891V475.43H512.072V497.891H534.502Z" fill="black" stroke="black" stroke-width="1.09474" stroke-linecap="round" stroke-linejoin="round"/>
<path d="M467.226 542.826V520.365H444.796V542.826H467.226Z" fill="black" stroke="black" stroke-width="1.09474" stroke-linecap="round" stroke-linejoin="round"/>
<path d="M489.642 520.351V542.812H512.072V520.351H489.642Z" fill="white" stroke="black" stroke-width="1.09474" stroke-linecap="round" stroke-linejoin="round"/>
<path d="M534.502 520.351V497.891H512.072V520.351H534.502Z" fill="white" stroke="black" stroke-width="1.09474" stroke-linecap="round" stroke-linejoin="round"/>
<path d="M489.642 520.351V497.891H467.213V520.351H489.642Z" fill="white" stroke="black" stroke-width="1.09474" stroke-linecap="round" stroke-linejoin="round"/>
<path d="M489.656 452.969V430.509H467.226V452.969H489.656Z" fill="white" stroke="black" stroke-width="1.09474" stroke-linecap="round" stroke-linejoin="round"/>
<path d="M467.226 565.286V542.825H444.796V565.286H467.226Z" fill="white" stroke="black" stroke-width="1.09474" stroke-linecap="round" stroke-linejoin="round"/>
<path d="M444.797 452.969V430.509H422.367V452.969H444.797Z" fill="black" stroke="black" stroke-width="1.09474" stroke-linecap="round" stroke-linejoin="round"/>
<path d="M467.227 475.43V452.969H444.797V475.43H467.227Z" fill="black" stroke="black" stroke-width="1.09474" stroke-linecap="round" stroke-linejoin="round"/>
<path d="M702.513 513.865C705.718 545.31 694.414 566.501 694.414 566.501" stroke="black" stroke-width="1.09474" stroke-linecap="round" stroke-linejoin="round"/>
<path d="M943.295 480.346C943.295 480.346 912.029 506.465 890.554 566.515" stroke="black" stroke-width="1.09474" stroke-linecap="round" stroke-linejoin="round"/>
</g>
<defs>
<clipPath id="clip0_1_184">
<rect width="1031" height="656" fill="white"/>
</clipPath>
</defs>
</svg>
